<svg id="visual" viewBox="0 0 960 540" width="960" height="540" xmlns="http://www.w3.org/2000/svg" xmlns:xlink="http://www.w3.org/1999/xlink" version="1.1"><rect x="0" y="0" width="960" height="540" fill="#001220"></rect><path d="M0 412L12.3 408.7C24.7 405.3 49.3 398.7 74 392.7C98.7 386.7 123.3 381.3 148 377.5C172.7 373.7 197.3 371.3 221.8 373C246.3 374.7 270.7 380.3 295.2 386.5C319.7 392.7 344.3 399.3 369 400.7C393.7 402 418.3 398 443 395.2C467.7 392.3 492.3 390.7 517 383.3C541.7 376 566.3 363 591 369.2C615.7 375.3 640.3 400.7 664.8 404.3C689.3 408 713.7 390 738.2 382.5C762.7 375 787.3 378 812 381.3C836.7 384.7 861.3 388.3 886 390.3C910.7 392.3 935.3 392.7 947.7 392.8L960 393L960 541L947.7 541C935.3 541 910.7 541 886 541C861.3 541 836.7 541 812 541C787.3 541 762.7 541 738.2 541C713.7 541 689.3 541 664.8 541C640.3 541 615.7 541 591 541C566.3 541 541.7 541 517 541C492.3 541 467.7 541 443 541C418.3 541 393.7 541 369 541C344.3 541 319.7 541 295.2 541C270.7 541 246.3 541 221.8 541C197.3 541 172.7 541 148 541C123.3 541 98.7 541 74 541C49.3 541 24.7 541 12.3 541L0 541Z" fill="#fcff00"></path><path d="M0 409L12.3 413.2C24.7 417.3 49.3 425.7 74 429.2C98.7 432.7 123.3 431.3 148 429.3C172.7 427.3 197.3 424.7 221.8 417.3C246.3 410 270.7 398 295.2 392.7C319.7 387.3 344.3 388.7 369 390.2C393.7 391.7 418.3 393.3 443 401C467.7 408.7 492.3 422.3 517 421C541.7 419.7 566.3 403.3 591 405.3C615.7 407.3 640.3 427.7 664.8 434C689.3 440.3 713.7 432.7 738.2 423.2C762.7 413.7 787.3 402.3 812 397.7C836.7 393 861.3 395 886 404.3C910.7 413.7 935.3 430.3 947.7 438.7L960 447L960 541L947.7 541C935.3 541 910.7 541 886 541C861.3 541 836.7 541 812 541C787.3 541 762.7 541 738.2 541C713.7 541 689.3 541 664.8 541C640.3 541 615.7 541 591 541C566.3 541 541.7 541 517 541C492.3 541 467.7 541 443 541C418.3 541 393.7 541 369 541C344.3 541 319.7 541 295.2 541C270.7 541 246.3 541 221.8 541C197.3 541 172.7 541 148 541C123.3 541 98.7 541 74 541C49.3 541 24.7 541 12.3 541L0 541Z" fill="#ffce00"></path><path d="M0 472L12.3 466.7C24.7 461.3 49.3 450.7 74 448.5C98.7 446.3 123.3 452.7 148 450.7C172.7 448.7 197.3 438.3 221.8 435.8C246.3 433.3 270.7 438.7 295.2 443.2C319.7 447.7 344.3 451.3 369 454.3C393.7 457.3 418.3 459.7 443 456C467.7 452.3 492.3 442.7 517 438.5C541.7 434.3 566.3 435.7 591 438.7C615.7 441.7 640.3 446.3 664.8 444.7C689.3 443 713.7 435 738.2 431C762.7 427 787.3 427 812 428.3C836.7 429.7 861.3 432.3 886 431.5C910.7 430.7 935.3 426.3 947.7 424.2L960 422L960 541L947.7 541C935.3 541 910.7 541 886 541C861.3 541 836.7 541 812 541C787.3 541 762.7 541 738.2 541C713.7 541 689.3 541 664.8 541C640.3 541 615.7 541 591 541C566.3 541 541.7 541 517 541C492.3 541 467.7 541 443 541C418.3 541 393.7 541 369 541C344.3 541 319.7 541 295.2 541C270.7 541 246.3 541 221.8 541C197.3 541 172.7 541 148 541C123.3 541 98.7 541 74 541C49.3 541 24.7 541 12.3 541L0 541Z" fill="#ff9f00"></path><path d="M0 462L12.3 460.2C24.7 458.3 49.3 454.7 74 452.8C98.7 451 123.3 451 148 454.2C172.7 457.3 197.3 463.7 221.8 468.2C246.3 472.7 270.7 475.3 295.2 472C319.7 468.7 344.3 459.3 369 459.5C393.7 459.7 418.3 469.3 443 471.8C467.7 474.3 492.3 469.7 517 467.7C541.7 465.7 566.3 466.3 591 469.5C615.7 472.7 640.3 478.3 664.8 480C689.3 481.7 713.7 479.3 738.2 474.5C762.7 469.7 787.3 462.3 812 466C836.7 469.7 861.3 484.3 886 486.8C910.7 489.3 935.3 479.7 947.7 474.8L960 470L960 541L947.7 541C935.3 541 910.7 541 886 541C861.3 541 836.7 541 812 541C787.3 541 762.7 541 738.2 541C713.7 541 689.3 541 664.8 541C640.3 541 615.7 541 591 541C566.3 541 541.7 541 517 541C492.3 541 467.7 541 443 541C418.3 541 393.7 541 369 541C344.3 541 319.7 541 295.2 541C270.7 541 246.3 541 221.8 541C197.3 541 172.7 541 148 541C123.3 541 98.7 541 74 541C49.3 541 24.7 541 12.3 541L0 541Z" fill="#ff6b00"></path><path d="M0 511L12.3 513.2C24.7 515.3 49.3 519.7 74 516.5C98.7 513.3 123.3 502.7 148 497C172.7 491.3 197.3 490.7 221.8 492.7C246.3 494.7 270.7 499.3 295.2 499.5C319.7 499.7 344.3 495.3 369 492.2C393.7 489 418.3 487 443 486.2C467.7 485.3 492.3 485.7 517 492C541.7 498.3 566.3 510.7 591 515.7C615.7 520.7 640.3 518.3 664.8 512.3C689.3 506.3 713.7 496.7 738.2 496C762.7 495.3 787.3 503.7 812 507.8C836.7 512 861.3 512 886 510.7C910.7 509.3 935.3 506.7 947.7 505.3L960 504L960 541L947.7 541C935.3 541 910.7 541 886 541C861.3 541 836.7 541 812 541C787.3 541 762.7 541 738.2 541C713.7 541 689.3 541 664.8 541C640.3 541 615.7 541 591 541C566.3 541 541.7 541 517 541C492.3 541 467.7 541 443 541C418.3 541 393.7 541 369 541C344.3 541 319.7 541 295.2 541C270.7 541 246.3 541 221.8 541C197.3 541 172.7 541 148 541C123.3 541 98.7 541 74 541C49.3 541 24.7 541 12.3 541L0 541Z" fill="#ff0505"></path></svg>